Coordinates
version=1
nRows=15
nColumns=33
inDegrees=yes

Units are S.I. units (second, meters, Newtons, ...)
Angles are in degrees.

endheader
time	ground_thorax_rot_x	ground_thorax_rot_y	ground_thorax_rot_z	ground_thorax_tx	ground_thorax_ty	ground_thorax_tz	clav_prot_r	clav_elev_r	scapula_abduction_r	scapula_elevation_r	scapula_upward_rot_r	scapula_winging_r	shoulder_elv_r	plane_of_elev_r	axial_rot_r	elbow_flexion_r	pro_sup_r	wrist_flex_r	wrist_dev_r	clav_prot_l	clav_elev_l	scapula_abduction_l	scapula_elevation_l	scapula_upward_rot_l	scapula_winging_l	shoulder_elv_l	plane_of_elev_l	axial_rot_l	elbow_flexion_l	pro_sup_l	wrist_flex_l	wrist_dev_l	
1.2900	2.391028	4.918616	11.574995	-0.113722	1.037516	0.029162	5.859673	11.566502	20.319494	7.527335	22.197512	-11.134127	7.702030	-74.610162	54.764541	52.341115	-27.749695	70.000000	-25.000000	11.407956	-4.208411	-17.039921	-21.454341	-43.303923	-0.352725	60.877878	-37.721005	-3.781660	66.365416	26.037490	-2.555654	-25.000000	
1.3000	2.274837	5.092538	11.595754	-0.113796	1.037483	0.029257	5.638849	11.382783	19.856452	7.420723	22.078064	-10.963857	7.611676	-74.431401	54.689285	52.141207	-27.985416	70.000000	-25.000000	11.445975	-4.287090	-17.103484	-21.370458	-43.289156	-0.313973	60.973498	-37.776680	-3.945166	66.099315	26.067570	-3.103332	-25.000000	
1.3100	2.154750	5.275519	11.584601	-0.113898	1.037497	0.029350	5.417685	11.178257	19.389772	7.300604	21.946435	-10.790165	7.533775	-74.213028	54.596585	51.922741	-28.243077	70.000000	-25.000000	11.494407	-4.378788	-17.180177	-21.266185	-43.257771	-0.265085	61.090781	-37.806355	-4.120787	65.832989	26.093529	-3.671404	-25.000000	
1.3200	2.077363	5.390973	11.621276	-0.114007	1.037364	0.029408	5.269830	11.049800	19.077679	7.226235	21.861439	-10.675104	7.487939	-74.062442	54.534938	51.784588	-28.434967	70.000000	-25.000000	11.515954	-4.449942	-17.218114	-21.195742	-43.254930	-0.240463	61.137279	-37.812830	-4.193335	65.629753	26.095577	-4.044104	-25.000000	
1.3300	2.020032	5.474167	11.673324	-0.114133	1.037167	0.029450	5.160945	10.955364	18.844168	7.173148	21.794239	-10.588906	7.467517	-73.924055	54.484348	51.686311	-28.619339	70.000000	-25.000000	11.533108	-4.514570	-17.251703	-21.136871	-43.263440	-0.220261	61.156467	-37.791903	-4.213995	65.469764	26.073970	-4.333844	-25.000000	
1.3400	1.977658	5.531759	11.735701	-0.114273	1.036899	0.029478	5.086095	10.892324	18.679252	7.139883	21.743183	-10.528184	7.470913	-73.791667	54.447093	51.629110	-28.809056	70.000000	-25.000000	11.553812	-4.569903	-17.294938	-21.091854	-43.283423	-0.198514	61.157371	-37.747332	-4.198403	65.366049	26.025882	-4.563349	-25.000000	
1.3500	1.927341	5.597072	11.795095	-0.114420	1.036625	0.029518	5.009535	10.832529	18.489855	7.117893	21.667881	-10.456815	7.492045	-73.607231	54.414571	51.585493	-29.113990	70.000000	-25.000000	11.605487	-4.626913	-17.399170	-21.052912	-43.324058	-0.152442	61.164165	-37.676663	-4.170216	65.296132	25.924835	-4.875493	-25.000000	
1.3600	1.865727	5.677483	11.841493	-0.114561	1.036358	0.029573	4.922783	10.767404	18.265053	7.099122	21.571404	-10.371414	7.525376	-73.375206	54.388341	51.546718	-29.521246	70.000000	-25.000000	11.690878	-4.685220	-17.567525	-21.017927	-43.380136	-0.079938	61.187308	-37.590526	-4.151917	65.257771	25.781006	-5.280918	-25.000000	
1.3700	1.797740	5.766548	11.878667	-0.114680	1.036110	0.029642	4.825728	10.699903	18.009401	7.083639	21.460731	-10.274145	7.569888	-73.112475	54.374149	51.511373	-30.012744	70.000000	-25.000000	11.804618	-4.744993	-17.792133	-20.989117	-43.456396	0.014965	61.217633	-37.496156	-4.137223	65.239458	25.598760	-5.762042	-24.999999	
1.3800	1.743856	5.842292	11.906415	-0.114763	1.035871	0.029711	4.738347	10.641258	17.787789	7.067547	21.372301	-10.190704	7.629496	-72.875149	54.386508	51.487380	-30.485572	69.999999	-25.000000	11.926253	-4.805021	-18.034655	-20.965551	-43.545830	0.115925	61.238988	-37.402850	-4.115717	65.242452	25.404713	-6.205566	-24.999999	
1.3900	1.706960	5.900410	11.919904	-0.114805	1.035680	0.029782	4.658380	10.587461	17.597682	7.047307	21.306648	-10.119994	7.710293	-72.662703	54.428532	51.467627	-30.943756	69.999998	-25.000000	12.056492	-4.873177	-18.298341	-20.942475	-43.654705	0.224287	61.244359	-37.306419	-4.078532	65.253140	25.193180	-6.609538	-24.999998	
1.4000	1.705248	5.931626	11.920423	-0.114824	1.035539	0.029833	4.599229	10.545830	17.487500	7.018155	21.293846	-10.081709	7.835589	-72.518219	54.551832	51.466001	-31.357902	69.999997	-25.000000	12.201468	-4.969487	-18.601656	-20.911825	-43.808347	0.346314	61.209597	-37.196665	-3.989027	65.283659	24.938572	-6.907025	-24.999997	
1.4100	1.730592	5.939183	11.909070	-0.114822	1.035454	0.029871	4.558072	10.515858	17.443347	6.983469	21.323407	-10.070044	7.998297	-72.429357	54.742741	51.485274	-31.732645	69.999994	-25.000000	12.359654	-5.086772	-18.938767	-20.875838	-43.996430	0.480564	61.143026	-37.075715	-3.860219	65.337375	24.646505	-7.112256	-24.999994	
1.4200	1.773739	5.930689	11.885587	-0.114805	1.035403	0.029897	4.534137	10.500577	17.454366	6.949364	21.385474	-10.080664	8.194911	-72.383436	54.995704	51.540439	-32.072162	69.999990	-25.000000	12.534455	-5.214647	-19.312381	-20.839535	-44.208685	0.629202	61.054324	-36.943827	-3.708014	65.430956	24.314050	-7.233477	-24.999989	
1.4300	1.809685	5.917542	11.854182	-0.114758	1.035388	0.029933	4.514080	10.494561	17.465340	6.924922	21.442370	-10.091011	8.397069	-72.333695	55.247700	51.626265	-32.394928	69.999981	-25.000000	12.715826	-5.325997	-19.692765	-20.811918	-44.406404	0.782322	60.973363	-36.814821	-3.579959	65.558315	23.972326	-7.333462	-24.999981	
